<svg width="690" height="218" xmlns="http://www.w3.org/2000/svg"><g fill="#121212" fill-rule="evenodd"><path d="M608.772 146.307c3.221-3.63 9.983-8.394 15.071-8.216.171.22.367.47.621.788.987 1.234 4.352 3.301 4.816 4.49 1.379 3.534-3.105 14.548-5.491 17.806-3.303 4.51-7.454 8.323-11.358 12.238a66.572 66.572 0 0 1-10.003 8.247c-4.298-11.55-1.107-26.953 6.344-35.353m-68.46 29.811c.034-.124.052-.309.05-.582-.292-.904-1.087-3.452-1.16-4.36-.32-4.018.994-9.324 2.139-13.085 1.417-4.65 4.236-9.8 7.516-13.298 5.559-5.928 7.939-8.699 16.914-6.536 4.195 1.011 2.355.633 2.516 4.343.222 5.097-.991 8.797-3.874 12.694-5.9 7.977-13.572 14.586-21.193 20.145a51.29 51.29 0 0 0-2.143 1.672c-.23-.349-.507-.664-.764-.993m136.649-17.243c-7.826 10.442-19.61 22.723-30.687 29.013-9.332 5.3-19.959 11.054-30.939 7.021-1.89-.695-3.524-1.645-5.026-2.712 6.153-3.324 11.348-7.847 16.325-12.844 10.879-10.92 21.779-28.077 8.88-40.554-8.093-16.302-30.126-11.626-39.779.841-9.84 12.712-10.167 28.355-4.236 42.102.701 1.626 1.575 3.181 2.529 4.694-11.909 5.701-25.278 7.787-38.756 6.486-2.051-1.819-3.88-3.269-5.564-4.729 5.13-3.647 10.387-7.507 15.071-11.659 9.264-8.212 20.113-20.35 16.466-33.747-3.243-11.915-24.203-19.588-34.59-14.859-12.517 5.7-20.025 23.013-20.262 35.983-.124 6.72 2.504 13.938 6.66 19.994-4.912 4.031-10.2 7.692-14.964 7.854-4.13.14-4.572-.869-7.303-4.019-3.946-4.555-6.516-9.967-5.85-15.723 1.262-10.918 7.14-20.496 14.385-28.322 3.77-4.07-7.66-9.085-10.296-8.879-6.274.491-14.537-2.475-20.892-3.157-1.964-.21-3.823-.566-5.656-.974-.216-3.463-1.296-6.7-3.947-9.332-2.126-2.112-6.024-3.707-8.924-2.534-8.49 3.434-5.862 10.195-.9 14.712-.968 4.173-1.849 8.537-2.016 9.217-1.576 6.367-3.23 12.99-5.1 19.56-2.33 8.186-6.436 14.746-11.721 21.023-2.219 2.633-4.47 6.84-7.284 8.825-2.31 1.63-5.368 2.08-8.361 2.39-2.341-3.537-3.272-9.677-3.526-13.298-.474-6.75 2.026-14.63 3.728-21.176 3.56-13.68 9.702-26.745 13.772-40.509 3.276-11.076 7.368-21.905 11.004-32.89.487.011.988.05 1.473.057 4.49.077-.445-.549 1.492-.417 2.39.164 6.704 1.261 8.849 1.648 6.107 1.103 11.314.765 17.706.746 12.156-.037 24.924 1.753 36.705-1.595 7.209-2.049-4.113-12.325-9.192-10.883-10.884 3.094-25.655 2.086-36.921 1.438-5.62-.322-11.184-.975-16.755-1.57 2.377-7.44 6.048-15.31 9.459-21.993 1.619-3.173 3.066-6.357 4.591-9.617 2.649-5.657 6.737-10.009 9.659-15.45 2.56-4.769-9.73-12.325-12.17-7.782-3.156 5.88-7.314 10.874-10.267 16.886-2.955 6.016-5.644 11.223-8.162 17.45-2.472 6.114-5.567 11.825-7.572 18.23-.104.338-.248.676-.361 1.014-21.957-1.56-43.954-5.242-65.911-4.157-6.882.341 4.01 11.14 9.192 10.882 11.006-.544 22.844 1.295 33.71 2.38 6.105.61 12.413 1.278 18.72 1.815-.745 1.854-1.455 3.706-2.021 5.556-3.375 11.033-6.447 22.016-10.726 32.935-3.673 9.37-7.002 19.188-9.305 28.905-3.92 16.535-7.931 40.495 10.928 50.053 18.223 9.236 33.192-13.198 39.288-26.908 4.082-9.177 5.736-19.093 8.002-28.494.61-2.525 1.382-5.297 1.979-8.124 4.375 1.192 8.779 1.882 13.606 2.47 1.781.216 3.586.52 5.399.844a22.87 22.87 0 0 0-3.221 5.623c-.957 2.371-2.078 4.614-3.017 6.957-2.912 7.285-3.695 14.426-.842 21.68 5.38 13.683 20.733 28.627 36.536 23.551 4.508-1.449 8.53-4.298 12.393-7.225 5.122 3.807 10.144 8.134 16.526 9.37 7.299 1.415 15.163 1.052 22.499.463 8.213-.66 14.061-4.166 20.927-7.475 10.074 8.413 24.201 12.75 36.567 9.797 20.023-4.778 38.225-23.145 50.165-39.075 3.074-4.1-8.902-12.14-12.169-7.783"/><path d="M309.996 161.124c-4.226 10.206-13 21.325-23.87 25.084-12.547 4.34-13.693-9.984-12.825-19.387.425-4.605.805-8.385 2.483-12.848 2.115-5.627 4.635-8.078 7.713-13.063.783-.64 1.57-1.323 2.363-2.037a24.2 24.2 0 0 0 3.603 6.396c5.35 6.788 14.077 9.67 22.687 10.08-.593 1.86-1.314 3.746-2.154 5.775m1.265-31.506c.466.411 1.01.762 1.582 1.085.809 3.845.549 8.896.817 12.219.034.416.035.806.053 1.209-2.003.388-4.045.602-6.152.545-6.074-.166-8.778.236-9.853-6.59-.773-4.909 1.267-8.388 5.636-10.492a14.335 14.335 0 0 1 3.283-.073c1.476.144 3.082 1.532 4.634 2.097m84.746-5.858c-15.116-3.86-25.186 12.888-33.076 22.298-.711.848-1.361 1.714-2.033 2.573.404-1.801.833-3.594 1.344-5.361 2.169-7.497 4.52-14.572 6.888-21.991.616-1.927-1.496-4.321-4.097-5.821-3.301-2.5-7.801-3.731-8.75-1.154-1.794 4.876-11.468 12.505-15.368 15.954-3.264 2.887-7.405 5.892-11.475 7.872-.87.422-1.738.843-2.607 1.256-.071-3.171-.16-5.994-2.181-9.404-.22-.371-2.897-3.283-5.331-5.358-.311-.314-.835-.766-1.713-1.435-1.644-1.253-3.268-2-5.161-2.818-3.906-1.688-9.118-3.812-13.425-3.759-2.751.033-5.18.474-7.414 1.189a22.663 22.663 0 0 0-1.504-4.013c-2.56-5.328-5.651-11.851-9.584-16.202-3.392-3.752-7.915-8.51-11.846-11.634-4.688-3.725-9.706-2.732-14.821-4.958-.545-.238-2.812-.826-2.698.496.248 2.898 1.403 4.747 2.033 7.49.734 3.189-.42 6.842.094 10.136 1.046 6.711 5.112 12.231 9.783 16.805 4.232 4.145 6.892 6.872 12.786 8.341 1.246.311 2.522.535 3.808.73-2.508 2.089-5.016 4.352-7.785 6.536-.423.232-.803.529-1.075.972-3.13 5.117-6.344 7.827-8.43 13.629-1.918 5.334-2.322 9.984-2.588 15.464-.505 10.389 1.044 20.694 8.746 28.525 17.967 18.264 41.535 1.493 51.766-15.629 4.026-6.74 6.48-13.693 7.054-21.122 7.463-2.446 15.532-6.974 21.18-11.057.05-.037.1-.085.15-.123-1.39 5.708-2.37 11.397-4.34 16.924-2.386 6.697-2.44 13.492-4.588 20.224-.924 2.897-4.375 10.431-3.347 13.553 1.015 3.08 6.033 7.267 9.552 6.109 4.98-1.64 7.428-12.369 9.477-16.652 3.414-7.138 7.808-13.285 11.804-19.876 3.738-6.163 8.918-10.99 13.067-16.83 2.319-3.266 10.554-12.849 16.638-13.216.75 4.162 1.18 7.977.476 12.652-.532 3.539-1.997 6.888-2.56 10.444-.674 4.274-.24 8.205-1.576 12.478-3.707 11.85-6.755 23.268 1.61 33.772 3.17 3.978 14.164 5.213 8.822-1.493-5.68-7.131-1.236-17.362.63-25.205 1.78-7.474 3.363-15.502 4.834-23.368 2.23-11.933.09-24.558-13.17-27.943"/><path d="M89.759 155.11c4.66-9.545 18.78-29.103 31.29-25.34.71 7.894-4.985 14.987-10.965 19.851-6.342 5.158-15.154 10.021-23.77 13.752 1.12-3.129 2.343-6.007 3.445-8.263m178.182 51.738c-3.057-.258-4.714.514-5.631.39-1.844-.249-6.767-2.263-8.091-3.055-4.662-2.788-8.491-9.737-9.864-14.913-1.841-6.932.097-17.42 1.32-24.184 1.826-10.096 2.18-20.802 7.206-30.039 2.127-3.909-5.168-7.848-8.117-8.112-14.29-1.277-23.583 11.023-31.125 21.992 1.025-5.806 1.997-11.675 2.826-17.524.577-4.079-6.287-7.65-9.663-7.166-14.741 2.12-25.748 16.626-34.668 27.304-1.15 1.375-2.16 2.876-3.113 4.432 1.344-3.965 2.159-8.409 3.757-12.297 1.219-2.968 3.647-5.349 4.825-8.24.633-1.555 1.147-3.266 1.549-5.005a33.27 33.27 0 0 0 1.669-4.978c1.167-4.765-11.41-11.594-12.831-5.79-1.752 7.16-5.098 8.592-9.29 13.971-3.252 4.174-6.068 8.553-9.75 12.532-6.25 6.754-13.27 15.686-20.59 21.003-6.992 5.078-12.871 11.572-20.787 15.91-5.292 2.901-13.474 7.43-20.28 7.75-2.34-1.835-3.927-3.598-4.52-7.158-.284-1.7-.265-3.687-.045-5.815 12.585-3.875 26.556-10.337 37.275-18.02 8.23-5.899 16.605-16.772 13.586-27.413-2.45-8.63-14.177-14.67-22.906-14.158-8.953.527-19.047 8.761-24.587 15.77-11.081 14.021-25.338 43.188-10.03 58.416 15.229 15.146 35.553 5.944 50.249-5.203 9.377-7.112 17.675-15.095 25.916-23.43-1.146 2.813-2.244 5.65-3.057 8.604-1.752 6.368-2.041 12.793-3.507 19.12-.902 3.897 8.885 10 11.364 6.17 8.18-12.643 16.352-26.235 25.829-37.897 5.29-6.512 11.992-15.738 20.002-21.467-1.122 6.495-2.386 12.963-3.814 19.181-1.331 5.797-4.033 11.164-5.626 16.786-1.62 5.707-1.834 11.462-2.725 17.353-.66 4.362 9.996 10.535 11.665 5.263 2.289-7.232 7.013-12.835 10.413-19.373 2.729-5.249 4.44-10.364 8.032-15.47 4.016-5.709 7.76-11.637 12.322-16.99.832-.976 2.057-2.122 3.498-3.263-1.828 7.025-2.915 14.408-3.89 21.014-1.535 10.407-1.327 20.882 3.204 30.41 4.104 8.632 10.144 15.49 19.08 19.387 4.074 1.776 4.082 1.905 7.36 2.795 4.08 1.107 6.842.23 10.73.556 7.403.622-.776-8.78-5.17-9.149"/><path d="M69.734 55.708c3.86-6.493 6.432-13.56 10.304-19.658 3.901-6.143 8.13-17.452 14.88-22.945-.589 5.543-2.268 11.218-3.512 16.145-2.606 10.322-5.364 20.524-8.064 30.816-4.333 16.517-11.372 32.322-19.179 47.407-6.617 12.784-13.79 25.014-21.703 36.871.934-8.995 2.815-17.91 4.973-26.138 5.422-20.679 11.411-44.175 22.301-62.498m1.524 153.059c-4.872-2.014-7.21-3.456-11.264-6.52-1.03-.779-2.409-1.281-3.578-1.909-.14-.448-2.532-3.054-2.97-3.627-4.344-5.687-8.664-17.137-10.329-26.047-.098-.526-.172-1.058-.258-1.587a275.447 275.447 0 0 1 3.774-5.358c10.232-14.088 20.077-28.595 27.981-44.108 16.174-31.742 28.608-66.429 33.211-101.79 1.727-13.276-11.073-23.08-22.847-14.749-6.614 4.68-11.535 14.792-15.26 21.736-2.754 5.128-5.459 9.649-8.078 14.904-14.993 30.081-27.34 62.578-32.033 95.926-1.266 8.994-1.528 18.368-.313 27.483-3.327 4.65-6.727 9.301-10.342 13.692-5.738 6.968-13.255 13.682-18.172 21.414-2.729 4.292 8.901 11.793 11.735 7.505 4.853-7.339 12.7-13.868 18.393-20.458 1.087-1.257 2.122-2.596 3.157-3.932a61.563 61.563 0 0 0 3.016 6.29c8.998 16.268 17.215 23.357 33.421 29.581 9.19 3.529 7.422-5.692.756-8.446"/></g></svg>