<svg data-name="Layer 1" xmlns="http://www.w3.org/2000/svg" width="205" height="205"><path d="M1.32 102.5A101.18 101.18 0 1 1 102.5 203.68 101.18 101.18 0 0 1 1.32 102.5" style="fill:#f15b3d"/><path d="M144.4 121.34a44 44 0 0 0-.33-29.92 44.53 44.53 0 0 0-4.59-9 45.84 45.84 0 0 0-3-4A52.83 52.83 0 0 1 128 56.28a9.65 9.65 0 0 0-3.18-4.14 9.77 9.77 0 0 0-5.53-1.93 9.74 9.74 0 0 0-5.06 1.27 52.94 52.94 0 0 1-20.46 12.05A41.37 41.37 0 0 0 89 64.81 44.56 44.56 0 0 0 79.76 69a44 44 0 0 0-18.84 23.27l-.15.46c-.05.15-.11.29-.17.45a44 44 0 0 0 .33 29.92 45.05 45.05 0 0 0 4.59 9 45.84 45.84 0 0 0 3 4A52.83 52.83 0 0 1 77 158.24a9.72 9.72 0 0 0 3.18 4.14 9.77 9.77 0 0 0 5.53 1.93 9.74 9.74 0 0 0 5.08-1.31 52.94 52.94 0 0 1 20.44-12 41.37 41.37 0 0 0 4.8-1.28 44.56 44.56 0 0 0 9.21-4.21 44 44 0 0 0 18.84-23.25l.15-.46c.05-.15.11-.29.17-.45" style="fill:#ffcd13"/><path d="M121.63 70.22a1.71 1.71 0 1 1 1 2.21 1.7 1.7 0 0 1-1-2.21M127.53 77.78a1.7 1.7 0 1 1 1 2.21 1.71 1.71 0 0 1-1-2.21M121.63 79.48a1.71 1.71 0 1 1 1 2.21 1.71 1.71 0 0 1-1-2.21" style="fill:#111828"/><path d="M124.66 51.83 120 48.2a35.49 35.49 0 0 0-49.81 6.15L74.86 58a35.48 35.48 0 0 0 49.8-6.16" style="fill:#038a81"/></svg>